<?xml version="1.0" standalone="no"?>
<!DOCTYPE svg PUBLIC "-//W3C//DTD SVG 20010904//EN"
 "http://www.w3.org/TR/2001/REC-SVG-20010904/DTD/svg10.dtd">
<svg version="1.0" xmlns="http://www.w3.org/2000/svg"
 width="736.000000pt" height="630.000000pt" viewBox="0 0 736.000000 630.000000"
 preserveAspectRatio="xMidYMid meet">
<metadata>
Created by potrace 1.16, written by Peter Selinger 2001-2019
</metadata>
<g transform="translate(0.000000,630.000000) scale(0.100000,-0.100000)"
fill="#000000" stroke="none">
<path d="M3306 6253 c-22 -67 -36 -166 -36 -250 l0 -71 -77 -1 c-91 -1 -197
-32 -231 -67 -13 -13 -27 -24 -32 -24 -5 0 -53 -35 -107 -78 -54 -43 -106 -81
-115 -85 -11 -4 -18 -17 -18 -32 0 -36 26 -95 42 -95 7 0 38 23 68 51 150 139
313 232 441 252 l36 5 34 -101 c19 -56 49 -124 68 -152 55 -80 142 -187 148
-181 3 3 -11 39 -31 79 -20 41 -48 119 -63 173 -48 182 -35 450 28 576 11 21
19 40 19 43 0 3 -36 5 -79 5 l-79 0 -16 -47z"/>
<path d="M3560 6294 c0 -7 40 -52 139 -159 31 -33 80 -86 108 -117 l53 -56 34
41 35 42 -67 70 c-37 39 -79 78 -93 87 -15 8 -35 34 -45 57 l-18 41 -73 0
c-40 0 -73 -3 -73 -6z"/>
<path d="M4239 6207 c-25 -18 -70 -52 -99 -77 -29 -25 -56 -47 -59 -50 -10 -7
-101 -152 -101 -160 0 -4 -13 -11 -29 -16 l-30 -9 49 -79 c90 -145 149 -327
133 -408 -4 -21 -3 -29 5 -24 39 24 40 278 1 364 -25 56 -26 81 -4 147 32 93
40 91 42 -9 1 -50 6 -104 11 -121 l9 -30 21 40 c39 75 139 187 199 222 24 14
46 23 49 21 2 -3 0 -27 -6 -53 -18 -79 -13 -255 6 -255 12 0 82 40 93 54 11
13 11 19 2 30 -8 10 -10 31 -6 63 10 67 43 196 53 202 5 3 16 25 25 49 l17 42
-38 0 c-56 0 -201 -43 -271 -80 -34 -18 -63 -31 -65 -29 -4 4 41 144 58 182
12 26 -12 20 -65 -16z"/>
<path d="M4662 5797 c-12 -13 -22 -26 -22 -30 0 -3 -10 -22 -21 -42 -17 -28
-24 -33 -35 -24 -16 13 -77 6 -118 -13 -26 -11 -29 -35 -11 -83 4 -11 19 -51
34 -90 l26 -70 5 70 5 70 30 -60 c26 -53 30 -70 29 -140 -2 -94 -31 -213 -75
-302 -34 -72 -84 -116 -179 -164 -57 -28 -71 -31 -129 -27 -36 3 -84 14 -107
25 l-41 20 -12 -59 c-7 -32 -14 -65 -18 -73 -3 -9 1 -15 10 -15 21 0 74 -46
65 -56 -4 -4 -23 5 -43 20 -50 38 -80 15 -32 -25 l22 -19 -30 11 c-18 6 -31 7
-33 1 -9 -29 -129 -195 -174 -243 -72 -75 -216 -189 -240 -189 -4 0 9 30 28
66 41 78 79 190 88 259 l7 50 -45 -83 c-75 -141 -202 -233 -368 -267 -74 -14
-128 -19 -128 -11 0 2 20 41 44 87 25 46 61 126 80 177 41 107 70 160 141 257
126 171 350 348 520 411 44 17 -27 16 -102 -1 -225 -50 -348 -131 -583 -383
-63 -68 -137 -146 -165 -174 -111 -111 -287 -231 -409 -280 -61 -24 -201 -58
-239 -58 l-27 0 26 43 c130 206 289 385 424 478 59 40 63 44 39 47 -15 2 -62
-14 -110 -37 -96 -46 -201 -140 -285 -254 -27 -37 -58 -70 -69 -73 -11 -3 -54
-4 -95 -2 l-75 3 68 48 c38 27 107 87 155 134 86 86 204 190 257 228 35 25
127 76 180 98 l40 18 -53 -6 c-121 -13 -304 -94 -430 -191 -44 -33 -48 -34
-136 -34 l-91 1 80 75 c44 41 114 99 156 129 81 58 238 139 304 156 22 6 46
13 54 15 29 9 -1 17 -76 21 -71 4 -167 -10 -227 -33 -18 -7 -17 -4 4 27 14 19
53 62 88 96 50 49 71 63 99 65 l36 3 -61 47 -60 47 -7 65 c-4 36 -10 66 -14
66 -4 0 -34 -10 -66 -21 -33 -12 -88 -24 -122 -27 -35 -2 -63 -7 -63 -9 0 -14
98 -87 152 -114 l47 -22 -54 -58 c-65 -71 -130 -154 -179 -232 -70 -110 -236
-262 -345 -317 l-45 -22 35 -19 c18 -9 88 -28 154 -40 66 -12 123 -25 128 -28
8 -8 -164 -124 -225 -151 l-41 -18 44 -22 c24 -12 46 -24 47 -26 11 -9 -81
-165 -125 -214 -13 -14 -23 -28 -23 -32 0 -5 -4 -8 -10 -8 -6 0 -10 41 -10
103 0 120 -19 217 -57 295 l-27 57 -7 -67 c-19 -177 -113 -431 -193 -521 -32
-36 -35 -37 -41 -18 -12 37 -33 22 -66 -46 -38 -79 -40 -82 -46 -65 -3 6 -11
12 -18 12 -11 0 -32 -57 -72 -194 -5 -16 -7 -15 -19 12 -7 18 -18 32 -23 32
-6 0 -18 -26 -26 -57 -9 -32 -23 -78 -31 -103 -50 -150 -56 -190 -51 -340 3
-96 10 -163 21 -198 14 -44 15 -60 6 -85 -7 -18 -16 -48 -20 -67 -5 -19 -16
-55 -25 -80 -11 -28 -14 -57 -10 -80 9 -48 61 -126 102 -154 l34 -24 -127 -61
c-70 -34 -149 -77 -176 -97 -39 -27 -67 -38 -135 -50 -135 -23 -353 -125 -459
-215 -92 -78 -98 -104 -19 -83 83 22 235 35 310 27 l69 -8 8 -40 c33 -158 176
-572 262 -758 26 -54 60 -133 77 -175 18 -42 36 -81 40 -86 13 -15 11 -95 -5
-199 -14 -83 -20 -151 -17 -184 1 -14 195 -174 282 -234 105 -71 357 -191 474
-226 28 -8 109 -37 180 -63 122 -46 327 -102 545 -149 242 -53 676 -66 1010
-31 384 40 632 80 847 136 76 20 181 46 233 59 52 13 133 38 180 55 159 60
235 89 264 102 55 24 361 177 386 193 14 8 77 44 140 80 214 120 335 205 463
325 27 25 66 61 86 80 38 35 38 36 31 90 -8 60 -49 219 -60 235 -4 6 -14 38
-24 71 -19 70 -65 186 -66 165 0 -10 -12 -12 -55 -6 -48 6 -56 4 -61 -12 -3
-10 -12 -32 -20 -50 -8 -17 -14 -36 -14 -41 0 -6 -4 -13 -9 -16 -5 -3 -17 17
-27 44 -12 34 -24 50 -35 50 -30 0 -29 -14 1 -92 28 -73 29 -78 15 -118 -22
-62 -22 -62 -75 -35 -42 22 -51 31 -69 80 -12 31 -21 61 -21 68 0 7 -4 17 -8
22 -14 16 -74 193 -69 202 3 4 -16 7 -42 5 -37 -3 -52 1 -71 18 l-25 21 27 -4
c17 -2 25 0 22 8 -3 6 4 20 16 30 21 19 29 8 8 -13 -14 -14 -11 -17 21 -27 19
-6 23 -4 18 8 -3 8 -11 33 -18 56 -11 38 -27 54 -30 31 -1 -5 -2 -15 -3 -22
-1 -10 -26 -25 -26 -15 0 22 46 136 61 150 27 25 24 30 -10 12 -16 -8 -53 -24
-83 -35 -85 -32 -83 -27 -54 -111 104 -304 108 -315 135 -322 11 -3 21 -4 21
-2 0 2 -14 41 -30 86 -17 45 -29 84 -27 86 9 8 55 -20 60 -36 3 -9 21 -61 41
-115 20 -55 36 -106 36 -113 0 -9 -27 0 -82 29 l-83 43 -38 110 c-21 61 -60
171 -87 245 -48 135 -51 156 -40 278 0 1 9 -2 20 -8 11 -6 22 -25 25 -48 11
-64 14 -68 31 -50 14 13 13 19 -6 56 -21 39 -21 41 -3 74 17 32 17 33 21 8 5
-37 21 -48 20 -14 0 16 5 42 11 57 6 15 10 33 8 40 -1 7 7 11 21 10 14 -2 22
3 22 12 0 22 28 18 40 -6 9 -16 18 -19 39 -14 41 9 79 -10 86 -42 11 -48 24
-73 40 -73 21 0 19 16 -6 49 -12 16 -19 36 -17 46 2 11 20 -16 47 -69 25 -47
51 -86 58 -86 16 0 56 62 45 70 -4 3 -36 48 -71 100 -125 186 -154 210 -276
236 l-40 9 3 96 c3 65 -1 115 -12 158 -9 35 -16 65 -16 68 0 2 17 2 38 -2 25
-4 43 -1 56 8 22 16 14 37 -14 37 -10 0 -22 5 -25 10 -3 6 -25 10 -48 10 -39
0 -44 3 -55 32 -6 17 -9 34 -7 37 3 2 29 -5 58 -16 107 -44 126 -48 139 -34
11 10 6 18 -22 41 -19 16 -58 41 -87 54 l-51 25 14 53 c8 29 19 84 24 121 6
38 16 74 23 81 7 7 30 77 51 156 40 151 40 159 -9 160 -11 0 -29 8 -40 17 -19
15 -18 15 15 10 19 -4 45 -9 58 -13 33 -9 27 13 -8 31 -16 8 -43 15 -59 15
-17 0 -41 5 -54 11 -19 9 -30 8 -49 -5 -25 -16 -26 -16 -57 19 -17 20 -47 43
-66 50 -44 19 -53 35 -20 35 38 0 26 24 -13 28 -23 2 -32 -1 -32 -12 0 -10 -6
-13 -17 -10 -13 4 -14 3 -5 -3 10 -8 5 -38 -26 -146 -21 -75 -40 -139 -43
-142 -3 -2 -28 16 -55 41 -71 66 -200 157 -293 208 l-81 43 20 25 c26 33 54
100 69 164 l12 52 42 -24 c41 -22 167 -58 176 -49 2 3 -10 33 -27 67 -39 80
-88 225 -101 302 -12 66 -14 126 -5 126 3 0 26 -18 51 -39 41 -37 130 -77 153
-69 5 2 -6 27 -24 56 -54 84 -115 213 -127 267 -19 81 -58 180 -90 228 l-29
45 25 43 c14 24 25 52 25 61 0 9 7 21 16 26 14 8 12 10 -10 16 -28 7 -36 26
-11 26 20 0 19 26 -1 34 -9 3 -31 6 -49 6 -36 0 -38 -3 -50 -73 -14 -82 -18
-86 -104 -83 -70 2 -79 0 -94 -21 -17 -22 -17 -23 2 -23 38 0 146 -42 175 -69
36 -32 93 -153 106 -223 6 -29 13 -62 16 -73 7 -28 -35 21 -88 103 -22 34 -45
62 -50 62 -6 0 -7 -17 -4 -37 3 -21 8 -72 11 -113 8 -88 48 -268 81 -359 13
-36 22 -67 19 -69 -20 -20 -219 217 -277 331 -27 52 -37 65 -38 48 0 -33 29
-149 47 -183 l14 -28 -45 0 -44 0 -7 53 c-8 63 -24 117 -35 117 -4 0 -11 -30
-15 -67 -9 -92 -55 -226 -106 -312 -42 -70 -68 -92 -55 -48 4 12 9 63 12 112
6 82 -6 172 -31 235 -3 10 11 38 35 70 77 102 106 199 95 311 l-7 71 55 49
c122 109 208 304 219 498 l3 43 42 -71 c23 -38 50 -100 60 -136 14 -55 21 -65
39 -65 12 0 36 -3 53 -6 30 -6 31 -5 31 27 0 19 -8 65 -19 101 -10 37 -16 70
-13 73 3 3 -2 5 -10 5 -16 0 -28 20 -28 46 0 8 -11 27 -25 42 -59 64 -135 253
-135 338 0 51 -15 57 -48 21z m-334 -1084 c-3 -52 -12 -85 -40 -143 -19 -41
-43 -84 -52 -95 -16 -19 -16 -18 -9 20 10 53 10 181 0 226 l-9 36 44 10 c73
18 71 20 66 -54z m-233 -140 c-2 -16 -6 -63 -9 -106 -3 -42 -11 -96 -16 -120
l-11 -42 -52 3 c-49 3 -54 1 -87 -33 l-35 -37 50 8 c91 14 100 12 98 -18 -1
-16 3 -28 9 -28 16 0 124 59 147 81 11 10 22 19 24 19 2 0 10 -38 17 -86 19
-128 2 -243 -54 -367 -14 -32 -26 -60 -26 -62 0 -3 12 -2 26 1 52 13 125 60
185 119 l61 60 -6 -35 c-6 -35 -10 -139 -7 -172 2 -32 18 -19 25 20 3 21 20
58 37 81 29 40 33 43 67 37 20 -3 49 -15 65 -27 46 -34 46 -11 0 32 -24 22
-56 42 -73 45 -16 4 -30 10 -30 14 0 15 33 86 48 103 19 22 99 23 130 1 26
-18 29 -8 6 24 -19 28 -65 52 -99 52 -30 0 -32 25 -4 43 23 15 60 2 103 -35
33 -29 39 -41 43 -85 9 -94 -38 -232 -101 -291 -59 -57 -159 -103 -244 -113
-96 -11 -344 5 -502 32 -63 11 -141 25 -173 30 -32 5 -91 20 -130 33 -218 70
-256 79 -334 74 -67 -5 -87 -11 -174 -57 -112 -58 -253 -113 -349 -135 -36 -9
-68 -16 -72 -16 -4 0 -6 24 -5 53 l2 54 -35 -8 c-19 -5 -53 -8 -75 -8 -55 0
-24 18 45 26 34 4 50 10 50 20 0 15 -51 14 -125 -2 l-30 -6 25 15 c14 8 46 18
73 22 43 6 47 9 47 34 0 26 1 27 48 19 58 -9 117 -5 247 17 100 17 152 33 109
34 -12 0 -45 -5 -74 -10 -111 -21 -205 -23 -261 -6 -90 27 -305 66 -364 66
-30 0 -55 4 -55 9 0 17 41 19 101 5 33 -8 99 -15 147 -17 83 -2 87 -1 85 19
-2 18 6 22 61 32 92 17 273 12 261 -8 -2 -4 6 -5 19 -3 13 3 46 -7 75 -21 42
-22 51 -24 51 -10 0 11 6 14 19 9 21 -6 41 18 41 51 0 12 -3 14 -13 6 -19 -16
-69 -2 -290 83 -109 41 -205 75 -212 75 -16 0 -23 17 -17 47 3 15 14 24 36 28
102 22 305 130 431 230 54 43 71 52 59 34 -50 -83 -168 -206 -236 -248 -21
-12 -38 -26 -38 -30 0 -19 134 -36 292 -36 93 0 168 -2 168 -5 -1 -11 -37 -47
-70 -70 -19 -14 -42 -30 -50 -37 -8 -7 -24 -19 -35 -28 -16 -12 -18 -16 -6
-24 10 -6 12 -20 8 -46 -8 -49 13 -42 29 11 10 34 12 35 13 12 1 -15 -3 -38
-9 -52 -12 -33 4 -43 24 -15 l15 22 27 -22 c40 -31 42 -17 6 33 -18 24 -32 49
-32 55 0 19 38 12 45 -8 3 -10 15 -27 27 -37 20 -18 21 -18 15 -1 -4 11 -10
31 -13 45 l-6 27 20 -24 c32 -39 92 -37 156 4 76 50 296 109 312 84 3 -5 11
-9 17 -9 7 0 6 4 -3 10 -22 13 -12 17 60 22 61 4 63 4 35 -9 l-30 -14 33 4
c24 3 32 0 32 -13 0 -9 -5 -21 -12 -28 -16 -16 3 -35 28 -30 21 4 86 86 81
102 -3 7 -51 11 -152 11 l-147 -1 59 27 c40 18 70 40 93 69 l34 43 -48 -6
c-35 -5 -88 -30 -185 -86 -202 -116 -311 -172 -323 -165 -6 4 38 31 98 60 111
54 297 170 376 234 51 41 166 158 215 218 41 49 54 53 48 15z m-2215 -863 c0
-5 -27 -40 -61 -77 -33 -37 -73 -92 -89 -122 -15 -31 -49 -78 -74 -106 -25
-27 -43 -56 -41 -63 3 -8 5 -23 5 -34 0 -20 1 -20 18 -5 10 9 38 24 62 32 25
9 60 25 79 36 56 33 47 13 -15 -33 -32 -24 -76 -60 -97 -80 -22 -21 -46 -38
-54 -38 -8 0 -28 -11 -45 -25 -43 -37 -48 -31 -26 27 14 37 18 64 13 94 -5 36
-3 43 17 56 21 14 108 130 108 145 0 8 184 201 193 202 4 1 7 -3 7 -9z m1968
-147 c6 -27 13 -69 17 -95 4 -27 9 -48 11 -48 3 0 15 6 27 14 12 8 49 20 82
26 78 16 118 33 165 70 45 35 55 38 39 9 -6 -11 -31 -30 -56 -41 -25 -11 -60
-35 -78 -54 -18 -19 -42 -34 -52 -34 -11 0 -43 -7 -71 -15 -47 -14 -52 -19
-51 -43 1 -15 1 -31 -1 -37 -1 -5 -2 -52 -1 -102 1 -92 1 -93 31 -108 23 -12
30 -22 30 -46 0 -16 9 -48 20 -69 11 -22 16 -40 11 -40 -5 0 -20 21 -32 46
-29 56 -54 73 -63 41 -3 -12 -6 -33 -6 -46 0 -13 -5 -53 -11 -87 -10 -56 -15
-66 -44 -84 -40 -25 -60 -26 -50 -2 4 9 13 73 22 142 21 175 11 458 -23 623
-5 26 -4 27 34 27 40 0 40 0 50 -47z m-918 33 c0 -5 -127 -79 -171 -100 l-36
-17 18 -97 c34 -179 120 -394 199 -499 l52 -68 -69 73 c-40 41 -88 105 -112
150 -49 89 -125 306 -146 413 -15 82 -12 88 40 89 17 0 73 13 125 30 52 16 96
29 98 29 1 1 2 -1 2 -3z m-1390 -1360 c0 -1 -5 -17 -11 -33 -7 -21 -23 -36
-49 -48 -22 -10 -41 -26 -44 -39 -2 -11 -1 -76 3 -142 7 -109 11 -125 35 -156
14 -19 26 -40 26 -46 0 -6 4 -14 10 -17 5 -3 7 0 5 8 -3 7 -2 24 3 37 9 23 9
23 21 -13 7 -21 13 -84 14 -140 1 -84 -2 -108 -18 -137 l-20 -35 -5 50 c-5 38
-8 45 -14 30 -26 -66 -50 -164 -42 -172 11 -11 16 3 24 63 l7 59 23 -36 c26
-43 28 -72 6 -94 -12 -12 -15 -28 -11 -60 2 -25 1 -42 -4 -40 -7 5 -29 -55
-29 -83 0 -7 -11 -18 -25 -24 -13 -6 -27 -18 -30 -27 -2 -9 -9 -88 -15 -176
-6 -87 -14 -163 -17 -168 -2 -4 -12 -2 -20 5 -13 11 -15 31 -9 133 6 120 31
358 43 404 6 23 5 24 -51 19 -43 -4 -56 -1 -56 9 0 7 -4 21 -10 31 -5 9 -18
37 -28 62 -11 25 -37 65 -59 90 -32 36 -43 58 -53 112 -12 59 -11 71 4 112 22
57 77 113 124 126 21 5 43 14 51 19 17 11 57 134 71 215 6 39 16 64 27 70 35
21 123 44 123 32z m1505 -172 c14 -6 8 -15 -30 -54 -40 -41 -44 -48 -31 -60 9
-7 16 -27 16 -45 0 -29 6 -35 52 -59 29 -15 84 -34 122 -42 81 -16 126 -33
126 -45 0 -16 -44 -9 -90 13 -34 17 -64 22 -124 22 l-80 1 -8 32 c-9 34 -50
73 -78 73 -19 0 -45 -27 -158 -168 -65 -80 -76 -90 -92 -80 -21 13 -14 35 23
75 17 20 18 23 4 29 -23 9 -125 -15 -177 -41 -25 -13 -59 -37 -76 -54 -24 -23
-42 -31 -85 -36 -61 -6 -65 -11 50 63 37 24 77 59 91 78 24 35 24 36 78 29 30
-4 76 -12 102 -19 48 -13 49 -12 69 15 12 16 21 35 21 44 0 9 8 18 18 22 9 3
25 13 35 22 18 15 18 16 -4 21 -21 5 -18 9 28 32 29 14 67 41 85 60 30 31 86
78 94 78 1 0 10 -3 19 -6z m-1440 -562 c3 -21 -1 -64 -9 -102 -9 -36 -16 -73
-16 -84 0 -32 27 0 35 42 10 55 17 60 30 21 20 -58 -5 -90 -128 -166 -5 -3 -6
3 -2 16 3 11 9 33 11 48 13 69 35 166 40 174 3 5 -4 9 -15 9 -12 0 -21 3 -21
6 0 10 28 34 39 34 6 0 11 9 11 20 0 35 18 22 25 -18z"/>
<path d="M3835 4009 c-43 -26 -161 -49 -287 -56 -60 -3 -108 -9 -108 -13 0
-12 173 -19 245 -10 39 5 78 9 88 10 25 0 21 18 -5 23 -13 2 2 2 32 0 50 -4
58 -1 90 26 25 21 30 30 18 31 -9 0 -22 2 -30 4 -7 2 -27 -4 -43 -15z"/>
<path d="M1282 1809 c-20 -21 -47 -122 -40 -155 2 -10 13 -23 25 -29 48 -24
66 -60 87 -174 7 -38 22 -61 40 -61 6 0 27 55 45 123 18 67 35 129 37 137 7
23 -31 77 -75 107 -22 16 -42 38 -45 51 -8 29 -48 30 -74 1z"/>
<path d="M2780 5461 c0 -5 7 -25 15 -45 10 -24 22 -36 35 -36 17 0 19 3 10 19
-5 11 -10 25 -10 32 0 20 29 -24 30 -43 0 -23 36 -23 156 -3 76 13 118 24 203
51 40 13 -20 19 -192 20 -106 0 -204 4 -219 7 -16 4 -28 3 -28 -2z"/>
<path d="M5870 5432 c0 -5 -13 -12 -29 -15 -42 -9 -97 -61 -115 -110 -14 -39
-82 -275 -93 -324 -6 -28 39 -55 59 -35 16 16 28 15 28 -3 0 -15 105 -69 186
-95 21 -7 51 -21 65 -31 l26 -19 28 98 c76 270 77 275 72 347 -5 84 -20 118
-70 158 -30 25 -49 32 -97 35 -36 3 -60 0 -60 -6z"/>
<path d="M5594 4848 c-8 -13 22 -38 45 -38 9 0 32 -14 51 -30 19 -17 28 -28
20 -26 -159 48 -176 53 -152 37 17 -10 6 -80 -14 -88 -22 -8 -16 -20 11 -27
32 -8 50 -49 34 -78 -8 -15 -18 -19 -43 -16 -18 2 -33 -1 -33 -7 -1 -16 -43
-167 -50 -178 -3 -6 -12 -48 -19 -94 -6 -46 -19 -92 -27 -101 -8 -9 -27 -62
-42 -117 -15 -55 -31 -107 -36 -117 -10 -18 30 -119 59 -151 22 -24 63 -47 46
-26 -16 20 -14 51 4 44 7 -3 25 -8 38 -11 13 -3 26 -13 29 -22 6 -20 142 -122
162 -122 16 0 13 -7 48 125 52 191 56 204 84 214 l26 9 -31 1 c-57 2 -72 49
-30 98 21 24 27 26 51 18 40 -14 52 -38 38 -75 -10 -27 -10 -30 3 -20 23 20
17 66 -13 94 l-27 25 21 88 c12 48 41 155 64 237 l43 149 -42 38 c-24 21 -57
41 -74 44 -17 4 -51 23 -76 42 -66 50 -159 95 -168 81z"/>
<path d="M5955 1981 c-16 -3 -29 -10 -27 -14 1 -4 2 -11 2 -17 0 -5 15 -10 34
-10 29 0 33 -3 29 -20 -6 -23 -19 -26 -26 -7 -2 6 -7 9 -11 6 -4 -4 6 -35 23
-70 16 -35 38 -86 48 -114 21 -56 50 -70 83 -40 18 16 17 19 -13 88 -17 40
-35 73 -39 75 -8 4 -25 40 -48 100 -7 17 -15 31 -19 31 -3 -1 -19 -4 -36 -8z"/>
<path d="M5791 1940 c-11 -6 -10 -19 7 -69 11 -34 19 -61 17 -61 -20 0 -57 28
-61 47 -6 23 -37 32 -49 13 -5 -8 35 -126 107 -319 l8 -24 19 22 c19 22 19 23
-4 79 -12 31 -31 71 -41 89 -25 42 -15 49 36 23 43 -22 49 -30 54 -76 2 -16 4
-32 5 -36 2 -15 41 -8 41 7 0 23 -51 145 -60 145 -5 0 -12 -4 -15 -10 -3 -5
-11 -10 -16 -10 -14 0 -2 38 22 72 14 20 15 26 5 22 -10 -4 -17 3 -22 20 -3
14 -12 26 -19 26 -8 0 -11 8 -8 19 6 22 -8 33 -26 21z"/>
</g>
</svg>
